# xmcd
#
# Track frame offsets: 
#        150
#        17781
#        37280
#        53025
#        68628
#        85872
#        101125
#        118355
#        137125
#        155920
#        173994
#        191203
#        209331
#        226394
#        244168
#        264677
#
# Disc length: 3789 seconds
#
# Revision: 1
# Processed by: cddbd v1.5.2PL0 Copyright (c) Steve Scherf et al.
# Submitted via: ExactAudioCopy v0.95b4
#
DISCID=f60ecb10
DTITLE=Various Artist - The R&B In Love
DYEAR=2014
DGENRE=R&B
TTITLE0=Black Eyed Peas - Where Is The Love
TTITLE1=Mario - Let Me Love You
TTITLE2=Blue - One Love
TTITLE3=Beyonce - Naughty Girl
TTITLE4=Alicia Keys - If I Ain't Got You
TTITLE5=Kylie Minogue - I Believe In You
TTITLE6=Enrique Iglesais feat. Kelis - Not in Love
TTITLE7=Jojo - Leave (Get Out)
TTITLE8=Beyonce Knowles feat. Sean Paul - Baby Boy
TTITLE9=Sugababes - Too Lost In You
TTITLE10=Eamon - F**k It (I Don't Want You Back)
TTITLE11=Christina Aguilera - Beautiful
TTITLE12=Blue - All Rise
TTITLE13=Britney Spears - I'm Not A Girl, Not Yet A Woman
TTITLE14=P. Diddy feat. Usher and Loon - I Need A Girl
TTITLE15=Mario Winans feat. Enya and P. Diddy - I Don't Wanna Know
EXTD=
EXTT0=
EXTT1=
EXTT2=
EXTT3=
EXTT4=
EXTT5=
EXTT6=
EXTT7=
EXTT8=
EXTT9=
EXTT10=
EXTT11=
EXTT12=
EXTT13=
EXTT14=
EXTT15=
PLAYORDER=
